<svg width="29" height="28" viewBox="0 0 29 28" fill="none" xmlns="http://www.w3.org/2000/svg">
<path d="M14.2545 24.5C13.4884 23.8327 12.6224 23.1385 11.7065 22.4H11.6947C8.46958 19.81 4.81448 16.8793 3.20015 13.3677C2.66978 12.2497 2.38871 11.0333 2.37575 9.8C2.3722 8.10773 3.06327 6.48548 4.29277 5.29989C5.52227 4.11431 7.18641 3.46546 8.90909 3.5C10.3115 3.50218 11.6838 3.90026 12.8624 4.64683C13.3802 4.97696 13.8488 5.3763 14.2545 5.83333C14.6626 5.37809 15.1313 4.97899 15.6479 4.64683C16.826 3.90011 18.1979 3.502 19.6 3.5C21.3227 3.46546 22.9868 4.11431 24.2163 5.29989C25.4458 6.48548 26.1369 8.10773 26.1334 9.8C26.1212 11.0353 25.8401 12.2537 25.309 13.3735C23.6946 16.8852 20.0407 19.8147 16.8156 22.4L16.8037 22.4093C15.8867 23.1432 15.0219 23.8373 14.2557 24.5093L14.2545 24.5ZM8.90909 5.83333C7.8026 5.81973 6.73536 6.23565 5.9394 6.99067C5.17248 7.73053 4.74386 8.74422 4.75142 9.8C4.76497 10.6989 4.97226 11.5848 5.35971 12.3993C6.12175 13.9145 7.14997 15.2857 8.39712 16.45C9.57431 17.6167 10.9285 18.746 12.0997 19.6957C12.424 19.9582 12.7543 20.223 13.0845 20.4878L13.2924 20.6547C13.6095 20.909 13.9374 21.1727 14.2545 21.4317L14.27 21.4177L14.2771 21.4118H14.2842L14.2949 21.4037H14.3009H14.3068L14.3282 21.3862L14.3769 21.3477L14.3852 21.3407L14.3983 21.3313H14.4054L14.4161 21.322L15.2049 20.6862L15.4115 20.5193C15.7453 20.2522 16.0756 19.9873 16.3999 19.7248C17.5711 18.7752 18.9265 17.647 20.1037 16.4745C21.351 15.3108 22.3792 13.9399 23.1411 12.425C23.5355 11.6034 23.7458 10.7083 23.7576 9.8C23.7625 8.74748 23.3341 7.73767 22.5697 7C21.7753 6.24157 20.7078 5.82223 19.6 5.83333C18.2481 5.82205 16.9557 6.3786 16.0482 7.36283L14.2545 9.39283L12.4609 7.36283C11.5534 6.3786 10.261 5.82205 8.90909 5.83333Z" fill="#F2F2F2"/>
</svg>
